<?xml version="1.0" encoding="UTF-8"?>
<!DOCTYPE svg PUBLIC "-//W3C//DTD SVG 1.1//EN" "http://www.w3.org/Graphics/SVG/1.1/DTD/svg11.dtd">
<svg xmlns="http://www.w3.org/2000/svg" version="1.1" width="95px" height="88px" style="shape-rendering:geometricPrecision; text-rendering:geometricPrecision; image-rendering:optimizeQuality; fill-rule:evenodd; clip-rule:evenodd" xmlns:xlink="http://www.w3.org/1999/xlink">
<g><path style="opacity:1" fill="#fcfcfc" d="M -0.5,-0.5 C 31.1667,-0.5 62.8333,-0.5 94.5,-0.5C 94.5,28.8333 94.5,58.1667 94.5,87.5C 62.8333,87.5 31.1667,87.5 -0.5,87.5C -0.5,58.1667 -0.5,28.8333 -0.5,-0.5 Z"/></g>
<g><path style="opacity:1" fill="#161616" d="M 45.5,3.5 C 49.8004,3.81526 51.467,6.14859 50.5,10.5C 62.1714,10.3335 73.8381,10.5001 85.5,11C 86.5536,12.3876 86.7203,13.8876 86,15.5C 83.9307,16.2638 81.764,16.7638 79.5,17C 83.5749,25.6515 87.2415,34.4848 90.5,43.5C 87.4107,58.3781 79.0773,62.5448 65.5,56C 61.1754,51.6892 59.6754,46.5225 61,40.5C 63.9756,32.5697 67.1422,24.7364 70.5,17C 63.8417,16.5004 57.175,16.3337 50.5,16.5C 50.5,35.1667 50.5,53.8333 50.5,72.5C 56.1764,72.3339 61.8431,72.5006 67.5,73C 70.0327,75.4686 71.5327,78.3019 72,81.5C 63.7423,82.1595 55.4089,82.4929 47,82.5C 38.5911,82.4929 30.2577,82.1595 22,81.5C 22.2514,78.1694 23.7514,75.3361 26.5,73C 32.1569,72.5006 37.8236,72.3339 43.5,72.5C 43.5,53.8333 43.5,35.1667 43.5,16.5C 36.8002,16.17 30.1335,16.5033 23.5,17.5C 28.6239,27.3621 31.7905,37.6955 33,48.5C 28.2975,58.7687 20.7975,61.6021 10.5,57C 6.21398,53.9281 3.88065,49.7614 3.5,44.5C 6.65054,35.0448 9.98387,25.7115 13.5,16.5C 8.68522,17.1449 7.01855,15.3115 8.5,11C 20.1619,10.5001 31.8286,10.3335 43.5,10.5C 43.1849,7.78924 43.8516,5.45591 45.5,3.5 Z"/></g>
<g><path style="opacity:1" fill="#f1f1f1" d="M 74.5,22.5 C 77.9661,29.0418 80.9661,35.8752 83.5,43C 78.1771,43.4994 72.8437,43.666 67.5,43.5C 69.6357,36.4262 71.969,29.4262 74.5,22.5 Z"/></g>
<g><path style="opacity:1" fill="#f2f2f2" d="M 26.5,43.5 C 21.0557,44.1083 16.0557,43.4417 11.5,41.5C 13.2709,35.2899 15.6042,29.2899 18.5,23.5C 21.715,29.9325 24.3816,36.5991 26.5,43.5 Z"/></g>
<g><path style="opacity:1" fill="#525252" d="M 11.5,41.5 C 16.0557,43.4417 21.0557,44.1083 26.5,43.5C 21.5889,44.6471 15.9222,44.8137 9.5,44C 10.0659,43.0053 10.7326,42.172 11.5,41.5 Z"/></g>
</svg>
