<?xml version="1.0" encoding="UTF-8"?>
<!DOCTYPE svg PUBLIC "-//W3C//DTD SVG 1.1//EN" "http://www.w3.org/Graphics/SVG/1.1/DTD/svg11.dtd">
<svg xmlns="http://www.w3.org/2000/svg" version="1.1" width="104px" height="99px" style="shape-rendering:geometricPrecision; text-rendering:geometricPrecision; image-rendering:optimizeQuality; fill-rule:evenodd; clip-rule:evenodd" xmlns:xlink="http://www.w3.org/1999/xlink">
<g><path style="opacity:1" fill="#111111" d="M -0.5,-0.5 C 34.1667,-0.5 68.8333,-0.5 103.5,-0.5C 103.5,32.5 103.5,65.5 103.5,98.5C 68.8333,98.5 34.1667,98.5 -0.5,98.5C -0.5,65.5 -0.5,32.5 -0.5,-0.5 Z"/></g>
<g><path style="opacity:1" fill="#f9f9f9" d="M 53.5,8.5 C 53.5,10.1667 53.5,11.8333 53.5,13.5C 64.8333,13.5 76.1667,13.5 87.5,13.5C 89.2798,14.9899 89.9465,16.9899 89.5,19.5C 87.4727,19.3379 85.4727,19.5045 83.5,20C 87.0725,27.6485 90.2392,35.4818 93,43.5C 94.7713,54.8934 89.938,61.2268 78.5,62.5C 69.8501,61.1834 64.8501,56.1834 63.5,47.5C 66.5585,38.3858 69.8919,29.3858 73.5,20.5C 67.021,19.5093 60.3543,19.176 53.5,19.5C 53.1698,38.3408 53.5031,57.0075 54.5,75.5C 60.1764,75.3339 65.8431,75.5006 71.5,76C 74.076,78.651 75.4093,81.8177 75.5,85.5C 58.8333,85.5 42.1667,85.5 25.5,85.5C 25.5907,81.8177 26.924,78.651 29.5,76C 35.1569,75.5006 40.8236,75.3339 46.5,75.5C 47.4969,57.0075 47.8302,38.3408 47.5,19.5C 40.8002,19.17 34.1335,19.5033 27.5,20.5C 27.6236,21.1067 27.9569,21.44 28.5,21.5C 31.3198,29.1456 34.1531,36.8123 37,44.5C 36.8688,58.9948 29.7021,64.4948 15.5,61C 10.5441,57.8731 7.87745,53.3731 7.5,47.5C 10.0339,38.2346 13.3672,29.2346 17.5,20.5C 15.6587,19.7696 13.8254,19.1029 12,18.5C 11.1231,16.3258 11.6231,14.6591 13.5,13.5C 24.8333,13.5 36.1667,13.5 47.5,13.5C 47.5,12.1667 47.5,10.8333 47.5,9.5C 47.484,7.51595 48.484,6.51595 50.5,6.5C 52.0377,6.45344 53.0377,7.12011 53.5,8.5 Z"/></g>
<g><path style="opacity:1" fill="#4b4b4b" d="M 47.5,9.5 C 47.5,10.8333 47.5,12.1667 47.5,13.5C 36.1667,13.5 24.8333,13.5 13.5,13.5C 24.3206,12.5054 35.3206,12.1721 46.5,12.5C 46.2627,11.209 46.596,10.209 47.5,9.5 Z"/></g>
<g><path style="opacity:1" fill="#515151" d="M 53.5,8.5 C 54.4345,9.56764 54.7678,10.901 54.5,12.5C 65.6794,12.1721 76.6794,12.5054 87.5,13.5C 76.1667,13.5 64.8333,13.5 53.5,13.5C 53.5,11.8333 53.5,10.1667 53.5,8.5 Z"/></g>
<g><path style="opacity:1" fill="#4c4c4c" d="M 46.5,75.5 C 46.5,57.1667 46.5,38.8333 46.5,20.5C 40.31,20.1771 34.31,20.5104 28.5,21.5C 27.9569,21.44 27.6236,21.1067 27.5,20.5C 34.1335,19.5033 40.8002,19.17 47.5,19.5C 47.8302,38.3408 47.4969,57.0075 46.5,75.5 Z"/></g>
<g><path style="opacity:1" fill="#646464" d="M 73.5,20.5 C 67.1667,20.5 60.8333,20.5 54.5,20.5C 54.5,38.8333 54.5,57.1667 54.5,75.5C 53.5031,57.0075 53.1698,38.3408 53.5,19.5C 60.3543,19.176 67.021,19.5093 73.5,20.5 Z"/></g>
<g><path style="opacity:1" fill="#1a1a1a" d="M 78.5,26.5 C 81.5315,32.5698 84.1981,38.9032 86.5,45.5C 81.1977,46.6628 75.8643,46.8295 70.5,46C 73.3112,39.5463 75.9778,33.0463 78.5,26.5 Z"/></g>
<g><path style="opacity:1" fill="#1b1b1b" d="M 21.5,26.5 C 22.4972,26.4701 23.1639,26.9701 23.5,28C 25.6419,34.0955 27.9753,40.0955 30.5,46C 25.1667,46.6667 19.8333,46.6667 14.5,46C 17.3315,39.6716 19.6649,33.1716 21.5,26.5 Z"/></g>
</svg>
