<?xml version="1.0" encoding="UTF-8"?>
<!DOCTYPE svg PUBLIC "-//W3C//DTD SVG 1.1//EN" "http://www.w3.org/Graphics/SVG/1.1/DTD/svg11.dtd">
<svg xmlns="http://www.w3.org/2000/svg" version="1.1" width="122px" height="105px" style="shape-rendering:geometricPrecision; text-rendering:geometricPrecision; image-rendering:optimizeQuality; fill-rule:evenodd; clip-rule:evenodd" xmlns:xlink="http://www.w3.org/1999/xlink">
<g><path style="opacity:1" fill="#111111" d="M -0.5,-0.5 C 40.1667,-0.5 80.8333,-0.5 121.5,-0.5C 121.5,34.5 121.5,69.5 121.5,104.5C 80.8333,104.5 40.1667,104.5 -0.5,104.5C -0.5,69.5 -0.5,34.5 -0.5,-0.5 Z"/></g>
<g><path style="opacity:1" fill="#f53845" d="M 61.5,9.5 C 61.5,11.5 61.5,13.5 61.5,15.5C 73.8333,15.5 86.1667,15.5 98.5,15.5C 101.762,19.962 100.429,22.2954 94.5,22.5C 97.8293,32.154 101.163,41.8207 104.5,51.5C 102.057,63.5641 94.7241,68.3974 82.5,66C 76.386,62.8806 73.0527,57.8806 72.5,51C 75.34,41.6462 78.6733,32.4795 82.5,23.5C 83.0431,23.44 83.3764,23.1067 83.5,22.5C 76.1968,21.5027 68.8635,21.1694 61.5,21.5C 61.1696,41.3404 61.5029,61.0071 62.5,80.5C 68.5092,80.3338 74.5092,80.5005 80.5,81C 83.0085,83.8432 84.5085,87.0099 85,90.5C 76.2419,91.16 67.4086,91.4933 58.5,91.5C 49.5914,91.4933 40.7581,91.16 32,90.5C 32.4915,87.0099 33.9915,83.8432 36.5,81C 42.4908,80.5005 48.4908,80.3338 54.5,80.5C 55.4971,61.0071 55.8304,41.3404 55.5,21.5C 48.1365,21.1694 40.8032,21.5027 33.5,22.5C 33.6236,23.1067 33.9569,23.44 34.5,23.5C 37.7567,31.4316 40.9234,39.4316 44,47.5C 43.9458,63.308 36.1124,69.1414 20.5,65C 16.1458,61.4522 13.4791,56.9522 12.5,51.5C 15.5709,41.6224 19.2376,31.9557 23.5,22.5C 21.6587,21.7696 19.8254,21.1029 18,20.5C 17.2204,18.6131 17.3871,16.9464 18.5,15.5C 30.8333,15.5 43.1667,15.5 55.5,15.5C 55.5,13.5 55.5,11.5 55.5,9.5C 57.5,6.83333 59.5,6.83333 61.5,9.5 Z"/></g>
<g><path style="opacity:1" fill="#84242b" d="M 61.5,9.5 C 62.4511,10.9187 62.7845,12.5853 62.5,14.5C 74.6783,14.1716 86.6783,14.5049 98.5,15.5C 86.1667,15.5 73.8333,15.5 61.5,15.5C 61.5,13.5 61.5,11.5 61.5,9.5 Z"/></g>
<g><path style="opacity:1" fill="#b92e37" d="M 55.5,9.5 C 55.5,11.5 55.5,13.5 55.5,15.5C 43.1667,15.5 30.8333,15.5 18.5,15.5C 30.3217,14.5049 42.3217,14.1716 54.5,14.5C 54.2155,12.5853 54.5489,10.9187 55.5,9.5 Z"/></g>
<g><path style="opacity:1" fill="#87252c" d="M 54.5,80.5 C 54.5,61.1667 54.5,41.8333 54.5,22.5C 47.6457,22.176 40.979,22.5093 34.5,23.5C 33.9569,23.44 33.6236,23.1067 33.5,22.5C 40.8032,21.5027 48.1365,21.1694 55.5,21.5C 55.8304,41.3404 55.4971,61.0071 54.5,80.5 Z"/></g>
<g><path style="opacity:1" fill="#87252c" d="M 82.5,23.5 C 76.021,22.5093 69.3543,22.176 62.5,22.5C 62.5,41.8333 62.5,61.1667 62.5,80.5C 61.5029,61.0071 61.1696,41.3404 61.5,21.5C 68.8635,21.1694 76.1968,21.5027 83.5,22.5C 83.3764,23.1067 83.0431,23.44 82.5,23.5 Z"/></g>
<g><path style="opacity:1" fill="#1a1313" d="M 36.5,49.5 C 31.0557,50.1083 26.0557,49.4417 21.5,47.5C 23.5129,40.9587 26.0129,34.6254 29,28.5C 32.0035,35.3454 34.5035,42.3454 36.5,49.5 Z"/></g>
<g><path style="opacity:1" fill="#1b1413" d="M 96.5,49.5 C 90.9738,49.8214 85.6405,49.4881 80.5,48.5C 82.6053,41.6206 85.272,34.954 88.5,28.5C 91.5634,35.358 94.2301,42.358 96.5,49.5 Z"/></g>
<g><path style="opacity:1" fill="#511c1f" d="M 21.5,47.5 C 26.0557,49.4417 31.0557,50.1083 36.5,49.5C 31.9321,50.5 26.5988,50.8334 20.5,50.5C 20.2627,49.209 20.596,48.209 21.5,47.5 Z"/></g>
<g><path style="opacity:1" fill="#88252c" d="M 80.5,48.5 C 85.6405,49.4881 90.9738,49.8214 96.5,49.5C 94.6045,50.218 91.9378,50.5513 88.5,50.5C 85.5,50.1667 82.5,49.8333 79.5,49.5C 79.6236,48.8933 79.9569,48.56 80.5,48.5 Z"/></g>
</svg>
