<?xml version="1.0" encoding="UTF-8"?>
<!DOCTYPE svg PUBLIC "-//W3C//DTD SVG 1.1//EN" "http://www.w3.org/Graphics/SVG/1.1/DTD/svg11.dtd">
<svg xmlns="http://www.w3.org/2000/svg" version="1.1" width="512px" height="151px" style="shape-rendering:geometricPrecision; text-rendering:geometricPrecision; image-rendering:optimizeQuality; fill-rule:evenodd; clip-rule:evenodd" xmlns:xlink="http://www.w3.org/1999/xlink">
<g><path style="opacity:1" fill="#f6f6f6" d="M -0.5,-0.5 C 170.167,-0.5 340.833,-0.5 511.5,-0.5C 511.5,49.8333 511.5,100.167 511.5,150.5C 340.833,150.5 170.167,150.5 -0.5,150.5C -0.5,100.167 -0.5,49.8333 -0.5,-0.5 Z"/></g>
<g><path style="opacity:1" fill="#111111" d="M 14.5,8.5 C 173.5,8.33333 332.5,8.5 491.5,9C 495.843,10.0095 499.01,12.5095 501,16.5C 501.667,54.5 501.667,92.5 501,130.5C 499.833,135.667 496.667,138.833 491.5,140C 332.5,140.667 173.5,140.667 14.5,140C 10.5095,138.01 8.0095,134.843 7,130.5C 6.33333,92.5 6.33333,54.5 7,16.5C 9.02821,13.3078 11.5282,10.6411 14.5,8.5 Z"/></g>
<g><path style="opacity:1" fill="#f53845" d="M 79.5,34.5 C 79.5,36.5 79.5,38.5 79.5,40.5C 91.8333,40.5 104.167,40.5 116.5,40.5C 119.762,44.962 118.429,47.2954 112.5,47.5C 115.829,57.154 119.163,66.8207 122.5,76.5C 120.057,88.5641 112.724,93.3974 100.5,91C 94.386,87.8806 91.0527,82.8806 90.5,76C 93.34,66.6462 96.6733,57.4795 100.5,48.5C 101.043,48.44 101.376,48.1067 101.5,47.5C 94.1968,46.5027 86.8635,46.1694 79.5,46.5C 79.1696,66.3404 79.5029,86.0071 80.5,105.5C 86.5092,105.334 92.5092,105.501 98.5,106C 101.009,108.843 102.509,112.01 103,115.5C 94.2419,116.16 85.4086,116.493 76.5,116.5C 67.5914,116.493 58.7581,116.16 50,115.5C 50.4915,112.01 51.9915,108.843 54.5,106C 60.4908,105.501 66.4908,105.334 72.5,105.5C 73.4971,86.0071 73.8304,66.3404 73.5,46.5C 66.1365,46.1694 58.8032,46.5027 51.5,47.5C 51.6236,48.1067 51.9569,48.44 52.5,48.5C 55.7567,56.4316 58.9234,64.4316 62,72.5C 61.9458,88.308 54.1124,94.1414 38.5,90C 34.1458,86.4522 31.4791,81.9522 30.5,76.5C 33.5709,66.6224 37.2376,56.9557 41.5,47.5C 39.6587,46.7696 37.8254,46.1029 36,45.5C 35.2204,43.6131 35.3871,41.9464 36.5,40.5C 48.8333,40.5 61.1667,40.5 73.5,40.5C 73.5,38.5 73.5,36.5 73.5,34.5C 75.5,31.8333 77.5,31.8333 79.5,34.5 Z"/></g>
<g><path style="opacity:1" fill="#84242b" d="M 79.5,34.5 C 80.4511,35.9187 80.7845,37.5853 80.5,39.5C 92.6783,39.1716 104.678,39.5049 116.5,40.5C 104.167,40.5 91.8333,40.5 79.5,40.5C 79.5,38.5 79.5,36.5 79.5,34.5 Z"/></g>
<g><path style="opacity:1" fill="#b92e37" d="M 73.5,34.5 C 73.5,36.5 73.5,38.5 73.5,40.5C 61.1667,40.5 48.8333,40.5 36.5,40.5C 48.3217,39.5049 60.3217,39.1716 72.5,39.5C 72.2155,37.5853 72.5489,35.9187 73.5,34.5 Z"/></g>
<g><path style="opacity:1" fill="#efefef" d="M 146.5,39.5 C 155.506,39.3336 164.506,39.5002 173.5,40C 186.807,44.1103 191.641,52.9436 188,66.5C 185.737,73.0972 181.237,77.2639 174.5,79C 169.177,79.4994 163.844,79.666 158.5,79.5C 158.5,84.5 158.5,89.5 158.5,94.5C 154.5,94.5 150.5,94.5 146.5,94.5C 146.5,76.1667 146.5,57.8333 146.5,39.5 Z"/></g>
<g><path style="opacity:1" fill="#f0f0f0" d="M 311.5,40.5 C 315.167,40.5 318.833,40.5 322.5,40.5C 322.5,58.5 322.5,76.5 322.5,94.5C 318.833,94.5 315.167,94.5 311.5,94.5C 311.5,76.5 311.5,58.5 311.5,40.5 Z"/></g>
<g><path style="opacity:1" fill="#686868" d="M 311.5,40.5 C 315.298,39.5166 319.298,39.1832 323.5,39.5C 323.83,58.0076 323.497,76.3409 322.5,94.5C 322.5,76.5 322.5,58.5 322.5,40.5C 318.833,40.5 315.167,40.5 311.5,40.5 Z"/></g>
<g><path style="opacity:1" fill="#646464" d="M 477.5,40.5 C 473.833,40.5 470.167,40.5 466.5,40.5C 466.5,58.5 466.5,76.5 466.5,94.5C 465.503,76.3409 465.17,58.0076 465.5,39.5C 469.702,39.1832 473.702,39.5166 477.5,40.5 Z"/></g>
<g><path style="opacity:1" fill="#f0f0f0" d="M 477.5,40.5 C 477.5,58.5 477.5,76.5 477.5,94.5C 473.833,94.5 470.167,94.5 466.5,94.5C 466.5,76.5 466.5,58.5 466.5,40.5C 470.167,40.5 473.833,40.5 477.5,40.5 Z"/></g>
<g><path style="opacity:1" fill="#87252c" d="M 72.5,105.5 C 72.5,86.1667 72.5,66.8333 72.5,47.5C 65.6457,47.176 58.979,47.5093 52.5,48.5C 51.9569,48.44 51.6236,48.1067 51.5,47.5C 58.8032,46.5027 66.1365,46.1694 73.5,46.5C 73.8304,66.3404 73.4971,86.0071 72.5,105.5 Z"/></g>
<g><path style="opacity:1" fill="#87252c" d="M 100.5,48.5 C 94.021,47.5093 87.3543,47.176 80.5,47.5C 80.5,66.8333 80.5,86.1667 80.5,105.5C 79.5029,86.0071 79.1696,66.3404 79.5,46.5C 86.8635,46.1694 94.1968,46.5027 101.5,47.5C 101.376,48.1067 101.043,48.44 100.5,48.5 Z"/></g>
<g><path style="opacity:1" fill="#696969" d="M 159.5,51.5 C 159.5,56.8333 159.5,62.1667 159.5,67.5C 163.167,67.5 166.833,67.5 170.5,67.5C 166.702,68.4834 162.702,68.8168 158.5,68.5C 158.178,62.642 158.511,56.9753 159.5,51.5 Z"/></g>
<g><path style="opacity:1" fill="#121212" d="M 159.5,51.5 C 163.846,51.3343 168.179,51.501 172.5,52C 176.277,54.9547 177.443,58.788 176,63.5C 174.549,65.4641 172.716,66.7974 170.5,67.5C 166.833,67.5 163.167,67.5 159.5,67.5C 159.5,62.1667 159.5,56.8333 159.5,51.5 Z"/></g>
<g><path style="opacity:1" fill="#f2f2f2" d="M 225.5,54.5 C 228.833,54.5 232.167,54.5 235.5,54.5C 235.5,67.8333 235.5,81.1667 235.5,94.5C 232.167,94.5 228.833,94.5 225.5,94.5C 225.719,93.325 225.386,92.325 224.5,91.5C 217.282,95.2715 209.949,95.4382 202.5,92C 192.368,83.9678 190.201,74.1344 196,62.5C 203.881,52.9924 213.381,50.9924 224.5,56.5C 225.298,56.0431 225.631,55.3764 225.5,54.5 Z"/></g>
<g><path style="opacity:1" fill="#f1f1f1" d="M 260.5,52.5 C 261.5,52.5 262.5,52.5 263.5,52.5C 263.5,56.5 263.5,60.5 263.5,64.5C 258.075,64.0711 254.242,66.4045 252,71.5C 251.5,79.1594 251.334,86.8261 251.5,94.5C 247.833,94.5 244.167,94.5 240.5,94.5C 240.5,80.8333 240.5,67.1667 240.5,53.5C 244.167,53.5 247.833,53.5 251.5,53.5C 251.34,55.1992 251.506,56.8659 252,58.5C 254.671,56.0976 257.505,54.0976 260.5,52.5 Z"/></g>
<g><path style="opacity:1" fill="#f0f0f0" d="M 278.5,53.5 C 284.515,52.8026 290.182,53.8026 295.5,56.5C 296.386,55.675 296.719,54.675 296.5,53.5C 300.167,53.5 303.833,53.5 307.5,53.5C 307.5,67.1667 307.5,80.8333 307.5,94.5C 303.833,94.5 300.167,94.5 296.5,94.5C 296.649,93.448 296.483,92.448 296,91.5C 277.86,98.6802 267.027,92.6802 263.5,73.5C 264.746,63.9324 269.746,57.2657 278.5,53.5 Z"/></g>
<g><path style="opacity:1" fill="#f0f0f0" d="M 343.5,52.5 C 360.85,51.8498 369.183,60.1832 368.5,77.5C 358.161,77.3335 347.828,77.5002 337.5,78C 340.236,84.8658 345.236,87.1991 352.5,85C 355.196,84.3102 357.363,82.8102 359,80.5C 362.089,81.9596 364.922,83.793 367.5,86C 356.905,96.8926 345.238,98.2259 332.5,90C 321.766,73.0497 325.432,60.5497 343.5,52.5 Z"/></g>
<g><path style="opacity:1" fill="#efefef" d="M 385.5,53.5 C 389.846,53.3343 394.179,53.501 398.5,54C 400.329,54.2735 401.829,55.1068 403,56.5C 403.483,55.552 403.649,54.552 403.5,53.5C 407.167,53.5 410.833,53.5 414.5,53.5C 414.934,68.5583 414.434,83.5583 413,98.5C 408.398,106.209 401.565,109.876 392.5,109.5C 384.503,109.501 378.169,106.335 373.5,100C 375.911,98.0445 378.411,96.2112 381,94.5C 385.842,99.2989 391.675,100.799 398.5,99C 402.253,97.3262 403.753,94.4928 403,90.5C 391.307,96.3251 381.64,93.9917 374,83.5C 368.694,69.9107 372.527,59.9107 385.5,53.5 Z"/></g>
<g><path style="opacity:1" fill="#f1f1f1" d="M 432.5,53.5 C 438.657,52.9194 444.49,53.9194 450,56.5C 450.483,55.552 450.649,54.552 450.5,53.5C 454.167,53.5 457.833,53.5 461.5,53.5C 461.5,67.1667 461.5,80.8333 461.5,94.5C 457.241,94.9975 453.241,94.3308 449.5,92.5C 435.338,98.3276 425.171,94.3276 419,80.5C 416.619,67.9288 421.119,58.9288 432.5,53.5 Z"/></g>
<g><path style="opacity:1" fill="#adadad" d="M 225.5,54.5 C 228.962,53.5184 232.629,53.185 236.5,53.5C 236.829,67.3435 236.496,81.0102 235.5,94.5C 235.5,81.1667 235.5,67.8333 235.5,54.5C 232.167,54.5 228.833,54.5 225.5,54.5 Z"/></g>
<g><path style="opacity:1" fill="#1a1313" d="M 54.5,74.5 C 49.0557,75.1083 44.0557,74.4417 39.5,72.5C 41.5129,65.9587 44.0129,59.6254 47,53.5C 50.0035,60.3454 52.5035,67.3454 54.5,74.5 Z"/></g>
<g><path style="opacity:1" fill="#1b1413" d="M 114.5,74.5 C 108.974,74.8214 103.64,74.4881 98.5,73.5C 100.605,66.6206 103.272,59.954 106.5,53.5C 109.563,60.358 112.23,67.358 114.5,74.5 Z"/></g>
<g><path style="opacity:1" fill="#161616" d="M 356.5,67.5 C 350.69,68.4896 344.69,68.8229 338.5,68.5C 339.885,64.1198 342.885,62.1198 347.5,62.5C 351.905,61.8646 354.905,63.5313 356.5,67.5 Z"/></g>
<g><path style="opacity:1" fill="#161616" d="M 209.5,63.5 C 221.649,62.4747 226.483,67.808 224,79.5C 219.511,85.6641 214.011,86.8308 207.5,83C 201.672,75.8099 202.338,69.3099 209.5,63.5 Z"/></g>
<g><path style="opacity:1" fill="#171717" d="M 281.5,63.5 C 294.599,63.42 298.766,69.42 294,81.5C 285.48,87.9164 279.147,86.2497 275,76.5C 273.973,70.554 276.14,66.2207 281.5,63.5 Z"/></g>
<g><path style="opacity:1" fill="#151515" d="M 388.5,63.5 C 402.699,63.0665 406.699,69.2332 400.5,82C 388.298,86.801 382.464,82.6343 383,69.5C 384.36,66.9774 386.193,64.9774 388.5,63.5 Z"/></g>
<g><path style="opacity:1" fill="#151515" d="M 435.5,63.5 C 446.37,62.8672 451.203,67.8672 450,78.5C 443.25,87.7434 436.583,87.7434 430,78.5C 428.087,71.9698 429.92,66.9698 435.5,63.5 Z"/></g>
<g><path style="opacity:1" fill="#4c4c4c" d="M 356.5,67.5 C 357.043,67.56 357.376,67.8933 357.5,68.5C 351.012,69.8174 344.678,69.8174 338.5,68.5C 344.69,68.8229 350.69,68.4896 356.5,67.5 Z"/></g>
<g><path style="opacity:1" fill="#511c1f" d="M 39.5,72.5 C 44.0557,74.4417 49.0557,75.1083 54.5,74.5C 49.9321,75.5 44.5988,75.8334 38.5,75.5C 38.2627,74.209 38.596,73.209 39.5,72.5 Z"/></g>
<g><path style="opacity:1" fill="#88252c" d="M 98.5,73.5 C 103.64,74.4881 108.974,74.8214 114.5,74.5C 112.604,75.218 109.938,75.5513 106.5,75.5C 103.5,75.1667 100.5,74.8333 97.5,74.5C 97.6236,73.8933 97.9569,73.56 98.5,73.5 Z"/></g>
</svg>
