<?xml version="1.0" encoding="UTF-8"?>
<!DOCTYPE svg PUBLIC "-//W3C//DTD SVG 1.1//EN" "http://www.w3.org/Graphics/SVG/1.1/DTD/svg11.dtd">
<svg xmlns="http://www.w3.org/2000/svg" version="1.1" width="426px" height="107px" style="shape-rendering:geometricPrecision; text-rendering:geometricPrecision; image-rendering:optimizeQuality; fill-rule:evenodd; clip-rule:evenodd" xmlns:xlink="http://www.w3.org/1999/xlink">
<g><path style="opacity:1" fill="#111111" d="M -0.5,-0.5 C 141.5,-0.5 283.5,-0.5 425.5,-0.5C 425.5,35.1667 425.5,70.8333 425.5,106.5C 283.5,106.5 141.5,106.5 -0.5,106.5C -0.5,70.8333 -0.5,35.1667 -0.5,-0.5 Z"/></g>
<g><path style="opacity:1" fill="#f53845" d="M 77.5,29.5 C 78.0431,29.44 78.3764,29.1067 78.5,28.5C 72.0117,27.1826 65.6783,27.1826 59.5,28.5C 59.5,45.5 59.5,62.5 59.5,79.5C 64.8333,79.5 70.1667,79.5 75.5,79.5C 76.983,81.0938 78.483,82.7605 80,84.5C 80.6838,85.7839 80.5171,86.9505 79.5,88C 64.1703,88.4999 48.837,88.6666 33.5,88.5C 33.3773,85.4121 34.3773,82.7454 36.5,80.5C 42.1278,79.5046 47.7945,79.1712 53.5,79.5C 54.4967,62.3414 54.83,45.008 54.5,27.5C 47.4065,27.1672 41.0731,27.5005 35.5,28.5C 38.5949,35.6967 41.4282,43.0301 44,50.5C 44.028,63.801 37.528,68.9676 24.5,66C 19.5497,63.3436 16.8831,59.177 16.5,53.5C 19.1457,44.7295 22.479,36.2295 26.5,28C 24.567,27.7489 22.7337,27.2489 21,26.5C 20.235,24.9343 20.4017,23.6009 21.5,22.5C 32.5,22.5 43.5,22.5 54.5,22.5C 54.5,20.8333 54.5,19.1667 54.5,17.5C 55.3143,15.7274 56.6476,15.2274 58.5,16C 59.4061,17.6995 59.7394,19.5328 59.5,21.5C 70.1719,21.3335 80.8385,21.5002 91.5,22C 94.4928,25.8363 93.4928,28.003 88.5,28.5C 90.4965,35.6546 92.9965,42.6546 96,49.5C 97.6011,60.2755 92.9345,66.2755 82,67.5C 73.8824,66.3584 69.7157,61.6918 69.5,53.5C 71.5674,45.2979 74.234,37.2979 77.5,29.5 Z"/></g>
<g><path style="opacity:1" fill="#be2f38" d="M 54.5,17.5 C 54.5,19.1667 54.5,20.8333 54.5,22.5C 43.5,22.5 32.5,22.5 21.5,22.5C 31.9869,21.5056 42.6536,21.1722 53.5,21.5C 53.2322,19.901 53.5655,18.5676 54.5,17.5 Z"/></g>
<g><path style="opacity:1" fill="#7e7e7e" d="M 142.5,22.5 C 134.5,22.5 126.5,22.5 118.5,22.5C 118.5,38.1667 118.5,53.8333 118.5,69.5C 117.504,53.6754 117.17,37.6754 117.5,21.5C 126.017,21.1739 134.35,21.5073 142.5,22.5 Z"/></g>
<g><path style="opacity:1" fill="#f2f2f2" d="M 142.5,22.5 C 152.789,25.7314 156.955,32.7314 155,43.5C 152.737,50.0972 148.237,54.2639 141.5,56C 137.179,56.499 132.846,56.6657 128.5,56.5C 128.5,60.8333 128.5,65.1667 128.5,69.5C 125.167,69.5 121.833,69.5 118.5,69.5C 118.5,53.8333 118.5,38.1667 118.5,22.5C 126.5,22.5 134.5,22.5 142.5,22.5 Z"/></g>
<g><path style="opacity:1" fill="#f5f5f5" d="M 262.5,22.5 C 265.5,22.5 268.5,22.5 271.5,22.5C 271.5,37.8333 271.5,53.1667 271.5,68.5C 268.5,68.5 265.5,68.5 262.5,68.5C 262.5,53.1667 262.5,37.8333 262.5,22.5 Z"/></g>
<g><path style="opacity:1" fill="#f4f4f4" d="M 397.5,22.5 C 400.5,22.5 403.5,22.5 406.5,22.5C 406.5,37.8333 406.5,53.1667 406.5,68.5C 403.5,68.5 400.5,68.5 397.5,68.5C 397.5,53.1667 397.5,37.8333 397.5,22.5 Z"/></g>
<g><path style="opacity:1" fill="#b52d36" d="M 53.5,79.5 C 53.5,62.5 53.5,45.5 53.5,28.5C 47.5,28.5 41.5,28.5 35.5,28.5C 41.0731,27.5005 47.4065,27.1672 54.5,27.5C 54.83,45.008 54.4967,62.3414 53.5,79.5 Z"/></g>
<g><path style="opacity:1" fill="#85242b" d="M 59.5,28.5 C 65.6783,27.1826 72.0117,27.1826 78.5,28.5C 78.3764,29.1067 78.0431,29.44 77.5,29.5C 72.0247,28.5111 66.358,28.1778 60.5,28.5C 60.1667,28.5 59.8333,28.5 59.5,28.5 Z"/></g>
<g><path style="opacity:1" fill="#4b1a1d" d="M 59.5,28.5 C 59.8333,28.5 60.1667,28.5 60.5,28.5C 60.5,45.1667 60.5,61.8333 60.5,78.5C 65.6946,78.1795 70.6946,78.5128 75.5,79.5C 70.1667,79.5 64.8333,79.5 59.5,79.5C 59.5,62.5 59.5,45.5 59.5,28.5 Z"/></g>
<g><path style="opacity:1" fill="#4f4f4f" d="M 139.5,32.5 C 136.167,32.5 132.833,32.5 129.5,32.5C 129.5,36.8333 129.5,41.1667 129.5,45.5C 132.833,45.5 136.167,45.5 139.5,45.5C 136.038,46.4816 132.371,46.815 128.5,46.5C 128.5,41.5 128.5,36.5 128.5,31.5C 132.371,31.185 136.038,31.5184 139.5,32.5 Z"/></g>
<g><path style="opacity:1" fill="#131313" d="M 139.5,32.5 C 144.662,34.6973 145.829,38.364 143,43.5C 142.184,44.8228 141.017,45.4894 139.5,45.5C 136.167,45.5 132.833,45.5 129.5,45.5C 129.5,41.1667 129.5,36.8333 129.5,32.5C 132.833,32.5 136.167,32.5 139.5,32.5 Z"/></g>
<g><path style="opacity:1" fill="#efefef" d="M 171.5,33.5 C 174.518,33.3354 177.518,33.502 180.5,34C 182.676,34.1629 184.509,34.9963 186,36.5C 186.483,35.552 186.649,34.552 186.5,33.5C 189.833,33.5 193.167,33.5 196.5,33.5C 196.5,45.5 196.5,57.5 196.5,69.5C 192.566,69.9789 188.899,69.3122 185.5,67.5C 172.993,72.4929 164.16,68.8263 159,56.5C 157.433,45.6292 161.6,37.9626 171.5,33.5 Z"/></g>
<g><path style="opacity:1" fill="#a8a8a8" d="M 200.5,34.5 C 203.625,33.5206 206.958,33.1872 210.5,33.5C 210.5,34.8333 210.5,36.1667 210.5,37.5C 209.493,37.5476 209.16,36.5476 209.5,34.5C 206.5,34.5 203.5,34.5 200.5,34.5 Z"/></g>
<g><path style="opacity:1" fill="#ececec" d="M 200.5,34.5 C 203.5,34.5 206.5,34.5 209.5,34.5C 209.16,36.5476 209.493,37.5476 210.5,37.5C 213.135,34.5189 216.468,33.1856 220.5,33.5C 220.5,36.8333 220.5,40.1667 220.5,43.5C 216.406,42.7046 213.239,44.038 211,47.5C 210.5,54.8258 210.334,62.1591 210.5,69.5C 207.167,69.5 203.833,69.5 200.5,69.5C 200.5,57.8333 200.5,46.1667 200.5,34.5 Z"/></g>
<g><path style="opacity:1" fill="#eeeeee" d="M 233.5,33.5 C 238.313,33.2197 242.98,33.8863 247.5,35.5C 250.899,33.6878 254.566,33.0211 258.5,33.5C 258.5,45.5 258.5,57.5 258.5,69.5C 254.566,69.9789 250.899,69.3122 247.5,67.5C 235.03,72.5133 226.197,68.8466 221,56.5C 219.444,45.606 223.61,37.9393 233.5,33.5 Z"/></g>
<g><path style="opacity:1" fill="#eeeeee" d="M 288.5,33.5 C 304.039,32.0451 312.039,39.0451 312.5,54.5C 303.475,54.1685 294.475,54.5018 285.5,55.5C 288.033,61.2016 292.366,63.0349 298.5,61C 300.664,60.0857 302.664,58.919 304.5,57.5C 305.7,58.5312 307.034,59.3645 308.5,60C 310.007,60.8373 310.507,62.0039 310,63.5C 299.649,72.7626 289.316,72.7626 279,63.5C 272.084,50.0863 275.251,40.0863 288.5,33.5 Z"/></g>
<g><path style="opacity:1" fill="#efefef" d="M 327.5,33.5 C 332.337,33.1162 337.003,33.7829 341.5,35.5C 344.899,33.6878 348.566,33.0211 352.5,33.5C 352.944,46.9071 352.444,60.2404 351,73.5C 346.805,79.9309 340.805,82.9309 333,82.5C 325.868,82.685 320.368,79.8517 316.5,74C 320.132,69.2606 323.798,68.9273 327.5,73C 332.969,75.5049 337.803,74.6716 342,70.5C 343.221,66.1735 342.054,65.3401 338.5,68C 321.246,69.7435 313.746,61.9102 316,44.5C 318.412,39.2523 322.246,35.5857 327.5,33.5 Z"/></g>
<g><path style="opacity:1" fill="#efefef" d="M 368.5,33.5 C 373.313,33.2197 377.98,33.8863 382.5,35.5C 385.899,33.6878 389.566,33.0211 393.5,33.5C 393.5,45.5 393.5,57.5 393.5,69.5C 389.566,69.9789 385.899,69.3122 382.5,67.5C 370.03,72.5133 361.197,68.8466 356,56.5C 354.444,45.606 358.61,37.9393 368.5,33.5 Z"/></g>
<g><path style="opacity:1" fill="#1d1413" d="M 82.5,32.5 C 85.1414,38.7328 87.8081,45.0662 90.5,51.5C 85.5,52.8333 80.5,52.8333 75.5,51.5C 78.4341,45.362 80.7674,39.0287 82.5,32.5 Z"/></g>
<g><path style="opacity:1" fill="#1c1413" d="M 30.5,33.5 C 33.2618,39.534 35.9284,45.7006 38.5,52C 33.467,52.8289 28.467,52.6623 23.5,51.5C 25.8414,45.4713 28.1747,39.4713 30.5,33.5 Z"/></g>
<g><path style="opacity:1" fill="#bbbbbb" d="M 397.5,22.5 C 400.625,21.5206 403.958,21.1872 407.5,21.5C 407.5,37.5 407.5,53.5 407.5,69.5C 403.958,69.8128 400.625,69.4794 397.5,68.5C 400.5,68.5 403.5,68.5 406.5,68.5C 406.5,53.1667 406.5,37.8333 406.5,22.5C 403.5,22.5 400.5,22.5 397.5,22.5 Z"/></g>
<g><path style="opacity:1" fill="#141414" d="M 289.5,41.5 C 295.006,40.3777 299.34,42.0444 302.5,46.5C 296.833,47.8333 291.167,47.8333 285.5,46.5C 286.857,44.8144 288.19,43.1477 289.5,41.5 Z"/></g>
<g><path style="opacity:1" fill="#171717" d="M 173.5,42.5 C 183.039,41.8694 187.206,46.2028 186,55.5C 179.583,63.7543 173.583,63.421 168,54.5C 167.413,49.3435 169.246,45.3435 173.5,42.5 Z"/></g>
<g><path style="opacity:1" fill="#161616" d="M 235.5,42.5 C 246.216,41.3807 250.383,46.0474 248,56.5C 242.925,62.5237 237.592,62.857 232,57.5C 229.204,51.4516 230.371,46.4516 235.5,42.5 Z"/></g>
<g><path style="opacity:1" fill="#151515" d="M 329.5,42.5 C 341.416,41.8352 345.083,47.0019 340.5,58C 329.706,62.8777 324.54,59.3777 325,47.5C 326.059,45.3408 327.559,43.6741 329.5,42.5 Z"/></g>
<g><path style="opacity:1" fill="#171717" d="M 370.5,42.5 C 381.383,41.5373 385.55,46.2039 383,56.5C 377.925,62.5237 372.592,62.857 367,57.5C 364.204,51.4516 365.371,46.4516 370.5,42.5 Z"/></g>
<g><path style="opacity:1" fill="#b6b6b6" d="M 262.5,22.5 C 265.625,21.5206 268.958,21.1872 272.5,21.5C 272.5,37.5 272.5,53.5 272.5,69.5C 268.958,69.8128 265.625,69.4794 262.5,68.5C 265.5,68.5 268.5,68.5 271.5,68.5C 271.5,53.1667 271.5,37.8333 271.5,22.5C 268.5,22.5 265.5,22.5 262.5,22.5 Z"/></g>
</svg>
