<?xml version="1.0" encoding="UTF-8"?>
<!DOCTYPE svg PUBLIC "-//W3C//DTD SVG 1.1//EN" "http://www.w3.org/Graphics/SVG/1.1/DTD/svg11.dtd">
<svg xmlns="http://www.w3.org/2000/svg" version="1.1" width="369px" height="112px" style="shape-rendering:geometricPrecision; text-rendering:geometricPrecision; image-rendering:optimizeQuality; fill-rule:evenodd; clip-rule:evenodd" xmlns:xlink="http://www.w3.org/1999/xlink">
<g><path style="opacity:1" fill="#111111" d="M -0.5,-0.5 C 122.5,-0.5 245.5,-0.5 368.5,-0.5C 368.5,36.8333 368.5,74.1667 368.5,111.5C 245.5,111.5 122.5,111.5 -0.5,111.5C -0.5,74.1667 -0.5,36.8333 -0.5,-0.5 Z"/></g>
<g><path style="opacity:1" fill="#fdfdfd" d="M 12.5,8.5 C 126.5,8.33333 240.5,8.5 354.5,9C 356.57,9.94758 358.07,11.4476 359,13.5C 359.667,40.8333 359.667,68.1667 359,95.5C 358.167,98.3333 356.333,100.167 353.5,101C 239.833,101.667 126.167,101.667 12.5,101C 10.1853,99.8906 8.68532,98.0573 8,95.5C 7.33333,68.1667 7.33333,40.8333 8,13.5C 9.02496,11.313 10.525,9.64638 12.5,8.5 Z"/></g>
<g><path style="opacity:1" fill="#171717" d="M 60.5,35.5 C 59.5042,49.3234 59.1709,63.3234 59.5,77.5C 63.8333,77.5 68.1667,77.5 72.5,77.5C 74.0542,78.9142 75.3875,80.5808 76.5,82.5C 76.2907,83.086 75.9574,83.586 75.5,84C 63.1712,84.4999 50.8378,84.6665 38.5,84.5C 38.5548,81.3855 39.8881,79.0522 42.5,77.5C 46.8333,77.5 51.1667,77.5 55.5,77.5C 55.8291,63.3234 55.4958,49.3234 54.5,35.5C 49.8333,35.5 45.1667,35.5 40.5,35.5C 42.5301,42.4234 44.8634,49.2567 47.5,56C 44.8955,65.9691 38.8955,68.9691 29.5,65C 26.652,62.4712 24.9853,59.3045 24.5,55.5C 27.0375,48.928 29.7041,42.428 32.5,36C 30.3825,35.7398 28.7158,34.7398 27.5,33C 27.9574,32.586 28.2907,32.086 28.5,31.5C 37.1411,30.502 45.8078,30.1686 54.5,30.5C 54.1908,26.6572 55.6908,25.3239 59,26.5C 59.49,27.7932 59.6567,29.1266 59.5,30.5C 67.84,30.3336 76.1733,30.5003 84.5,31C 85.428,31.3879 86.0946,32.0546 86.5,33C 85.3867,34.3943 84.0534,35.561 82.5,36.5C 86.6364,44.0599 88.8031,52.0599 89,60.5C 82,69.8333 75,69.8333 68,60.5C 68.1969,52.0599 70.3636,44.0599 74.5,36.5C 69.8804,35.5067 65.2137,35.1734 60.5,35.5 Z"/></g>
<g><path style="opacity:1" fill="#151515" d="M 107.5,30.5 C 114.175,30.3337 120.842,30.5004 127.5,31C 139.167,37.667 140.5,46.0003 131.5,56C 126.405,58.1771 121.072,59.0104 115.5,58.5C 115.5,61.8333 115.5,65.1667 115.5,68.5C 112.833,68.5 110.167,68.5 107.5,68.5C 107.5,55.8333 107.5,43.1667 107.5,30.5 Z"/></g>
<g><path style="opacity:1" fill="#141414" d="M 224.5,30.5 C 227.167,30.5 229.833,30.5 232.5,30.5C 232.5,43.1667 232.5,55.8333 232.5,68.5C 229.833,68.5 227.167,68.5 224.5,68.5C 224.5,55.8333 224.5,43.1667 224.5,30.5 Z"/></g>
<g><path style="opacity:1" fill="#101110" d="M 334.5,31.5 C 336.833,31.5 339.167,31.5 341.5,31.5C 341.5,43.8333 341.5,56.1667 341.5,68.5C 339.167,68.5 336.833,68.5 334.5,68.5C 334.5,56.1667 334.5,43.8333 334.5,31.5 Z"/></g>
<g><path style="opacity:1" fill="#575757" d="M 334.5,31.5 C 336.948,30.5269 339.615,30.1936 342.5,30.5C 342.5,43.5 342.5,56.5 342.5,69.5C 339.615,69.8064 336.948,69.4731 334.5,68.5C 336.833,68.5 339.167,68.5 341.5,68.5C 341.5,56.1667 341.5,43.8333 341.5,31.5C 339.167,31.5 336.833,31.5 334.5,31.5 Z"/></g>
<g><path style="opacity:1" fill="#575757" d="M 54.5,35.5 C 55.4958,49.3234 55.8291,63.3234 55.5,77.5C 51.1667,77.5 46.8333,77.5 42.5,77.5C 46.2984,76.5166 50.2984,76.1832 54.5,76.5C 54.5,62.8333 54.5,49.1667 54.5,35.5 Z"/></g>
<g><path style="opacity:1" fill="#b7b7b7" d="M 60.5,35.5 C 60.5,49.1667 60.5,62.8333 60.5,76.5C 64.7016,76.1832 68.7016,76.5166 72.5,77.5C 68.1667,77.5 63.8333,77.5 59.5,77.5C 59.1709,63.3234 59.5042,49.3234 60.5,35.5 Z"/></g>
<g><path style="opacity:1" fill="#b5b5b5" d="M 124.5,39.5 C 121.833,39.5 119.167,39.5 116.5,39.5C 116.5,43.1667 116.5,46.8333 116.5,50.5C 115.517,46.7016 115.183,42.7016 115.5,38.5C 118.713,38.19 121.713,38.5233 124.5,39.5 Z"/></g>
<g><path style="opacity:1" fill="#fbfbfb" d="M 124.5,39.5 C 128.254,40.8276 129.421,43.4942 128,47.5C 127.167,48.3333 126.333,49.1667 125.5,50C 122.518,50.498 119.518,50.6646 116.5,50.5C 116.5,46.8333 116.5,43.1667 116.5,39.5C 119.167,39.5 121.833,39.5 124.5,39.5 Z"/></g>
<g><path style="opacity:1" fill="#151515" d="M 170.5,68.5 C 167.721,68.7214 165.054,68.388 162.5,67.5C 152.738,71.6995 145.572,69.0328 141,59.5C 138.431,50.7634 141.265,44.5968 149.5,41C 156.535,41.4083 163.535,41.2416 170.5,40.5C 170.5,49.8333 170.5,59.1667 170.5,68.5 Z"/></g>
<g><path style="opacity:1" fill="#141414" d="M 174.5,40.5 C 176.833,40.5 179.167,40.5 181.5,40.5C 181.974,44.1569 183.307,44.3236 185.5,41C 187.134,40.5065 188.801,40.3398 190.5,40.5C 190.5,42.8333 190.5,45.1667 190.5,47.5C 186.507,47.2447 183.674,48.9114 182,52.5C 181.501,57.8229 181.334,63.1563 181.5,68.5C 179.167,68.5 176.833,68.5 174.5,68.5C 174.5,59.1667 174.5,49.8333 174.5,40.5 Z"/></g>
<g><path style="opacity:1" fill="#161616" d="M 199.5,40.5 C 204.206,40.0852 208.706,40.7518 213,42.5C 215.456,40.6787 218.289,40.012 221.5,40.5C 221.5,49.8333 221.5,59.1667 221.5,68.5C 218.421,68.7399 215.421,68.4066 212.5,67.5C 197.764,71.5388 190.597,65.8721 191,50.5C 192.978,46.3619 195.811,43.0286 199.5,40.5 Z"/></g>
<g><path style="opacity:1" fill="#171717" d="M 264.5,56.5 C 257.137,56.1694 249.803,56.5027 242.5,57.5C 242.624,58.1067 242.957,58.44 243.5,58.5C 244.29,59.7942 245.29,60.9609 246.5,62C 251.03,63.2274 255.03,62.3941 258.5,59.5C 265.079,62.21 265.079,65.0433 258.5,68C 239.162,71.807 232.328,64.307 238,45.5C 247.889,36.7366 256.556,37.7366 264,48.5C 264.497,51.146 264.664,53.8127 264.5,56.5 Z"/></g>
<g><path style="opacity:1" fill="#171717" d="M 277.5,39.5 C 281.342,39.2391 285.009,39.9058 288.5,41.5C 291.421,40.5934 294.421,40.2601 297.5,40.5C 297.666,50.1724 297.5,59.8391 297,69.5C 296.27,73.8963 293.77,76.7296 289.5,78C 281.266,81.2175 274.266,79.5508 268.5,73C 271.243,69.0966 274.243,68.7633 277.5,72C 280.833,72.6667 284.167,72.6667 287.5,72C 289.037,70.8904 289.703,69.3904 289.5,67.5C 274.473,70.6287 267.306,64.6287 268,49.5C 270.022,44.98 273.189,41.6467 277.5,39.5 Z"/></g>
<g><path style="opacity:1" fill="#161616" d="M 330.5,40.5 C 330.5,49.8333 330.5,59.1667 330.5,68.5C 328.167,68.5 325.833,68.5 323.5,68.5C 323.44,67.9569 323.107,67.6236 322.5,67.5C 307.045,71.5509 299.878,65.5509 301,49.5C 306.133,40.381 313.467,38.0476 323,42.5C 325.106,40.709 327.606,40.0423 330.5,40.5 Z"/></g>
<g><path style="opacity:1" fill="#606060" d="M 330.5,40.5 C 331.494,49.9856 331.827,59.6522 331.5,69.5C 328.615,69.8064 325.948,69.4731 323.5,68.5C 325.833,68.5 328.167,68.5 330.5,68.5C 330.5,59.1667 330.5,49.8333 330.5,40.5 Z"/></g>
<g><path style="opacity:1" fill="#efefef" d="M 35.5,39.5 C 38.1051,44.4562 40.4385,49.6228 42.5,55C 38.5138,55.4988 34.5138,55.6655 30.5,55.5C 32.1667,50.1667 33.8333,44.8333 35.5,39.5 Z"/></g>
<g><path style="opacity:1" fill="#f0f0f0" d="M 77.5,40.5 C 80.5597,44.597 82.8931,49.2637 84.5,54.5C 80.5,55.8333 76.5,55.8333 72.5,54.5C 74.7447,50.0165 76.4113,45.3499 77.5,40.5 Z"/></g>
<g><path style="opacity:1" fill="#858585" d="M 174.5,40.5 C 174.5,49.8333 174.5,59.1667 174.5,68.5C 176.833,68.5 179.167,68.5 181.5,68.5C 179.052,69.4731 176.385,69.8064 173.5,69.5C 173.173,59.6522 173.506,49.9856 174.5,40.5 Z"/></g>
<g><path style="opacity:1" fill="#ebebeb" d="M 246.5,46.5 C 248.857,46.3367 251.19,46.5034 253.5,47C 255.032,47.6995 256.032,48.8662 256.5,50.5C 252.167,51.8333 247.833,51.8333 243.5,50.5C 244.524,49.1482 245.524,47.8149 246.5,46.5 Z"/></g>
<g><path style="opacity:1" fill="#f4f4f4" d="M 151.5,47.5 C 159.123,45.975 162.957,48.975 163,56.5C 160.917,61.9035 157.084,63.7368 151.5,62C 146.202,57.0918 146.202,52.2584 151.5,47.5 Z"/></g>
<g><path style="opacity:1" fill="#f8f8f8" d="M 201.5,47.5 C 210.156,45.7041 213.989,49.0375 213,57.5C 208.833,63.759 204.167,64.0923 199,58.5C 197.946,54.3445 198.78,50.6779 201.5,47.5 Z"/></g>
<g><path style="opacity:1" fill="#f0f0f0" d="M 279.5,46.5 C 284.558,45.7168 288.058,47.7168 290,52.5C 289.807,60.3668 285.974,63.2002 278.5,61C 272.99,55.7302 273.323,50.8968 279.5,46.5 Z"/></g>
<g><path style="opacity:1" fill="#f7f7f7" d="M 311.5,47.5 C 319.661,46.1715 323.495,49.5048 323,57.5C 319.702,62.7739 315.369,63.7739 310,60.5C 307.639,55.7295 308.139,51.3962 311.5,47.5 Z"/></g>
<g><path style="opacity:1" fill="#848484" d="M 264.5,56.5 C 257.5,57.1667 250.5,57.8333 243.5,58.5C 242.957,58.44 242.624,58.1067 242.5,57.5C 249.803,56.5027 257.137,56.1694 264.5,56.5 Z"/></g>
<g><path style="opacity:1" fill="#8e8e8e" d="M 162.5,67.5 C 165.054,68.388 167.721,68.7214 170.5,68.5C 169.378,69.1558 168.045,69.4892 166.5,69.5C 164.667,69.4146 163.334,68.7479 162.5,67.5 Z"/></g>
</svg>
