<?xml version="1.0" encoding="UTF-8"?>
<!DOCTYPE svg PUBLIC "-//W3C//DTD SVG 1.1//EN" "http://www.w3.org/Graphics/SVG/1.1/DTD/svg11.dtd">
<svg xmlns="http://www.w3.org/2000/svg" version="1.1" width="442px" height="122px" style="shape-rendering:geometricPrecision; text-rendering:geometricPrecision; image-rendering:optimizeQuality; fill-rule:evenodd; clip-rule:evenodd" xmlns:xlink="http://www.w3.org/1999/xlink">
<g><path style="opacity:1" fill="#f6f6f6" d="M -0.5,-0.5 C 146.833,-0.5 294.167,-0.5 441.5,-0.5C 441.5,40.1667 441.5,80.8333 441.5,121.5C 294.167,121.5 146.833,121.5 -0.5,121.5C -0.5,80.8333 -0.5,40.1667 -0.5,-0.5 Z"/></g>
<g><path style="opacity:1" fill="#111111" d="M 11.5,2.5 C 150.834,2.33333 290.167,2.5 429.5,3C 432.333,4.5 434.5,6.66667 436,9.5C 436.667,43.1667 436.667,76.8333 436,110.5C 434.332,114.165 431.499,116.332 427.5,117C 288.167,117.667 148.833,117.667 9.5,117C 7.29113,115.127 5.4578,112.96 4,110.5C 3.33333,76.5 3.33333,42.5 4,8.5C 6.13372,5.84741 8.63372,3.84741 11.5,2.5 Z"/></g>
<g><path style="opacity:1" fill="#f53845" d="M 85.5,37.5 C 86.0431,37.44 86.3764,37.1067 86.5,36.5C 80.0117,35.1826 73.6783,35.1826 67.5,36.5C 67.5,53.5 67.5,70.5 67.5,87.5C 72.8333,87.5 78.1667,87.5 83.5,87.5C 84.983,89.0938 86.483,90.7605 88,92.5C 88.6838,93.7839 88.5171,94.9505 87.5,96C 72.1703,96.4999 56.837,96.6666 41.5,96.5C 41.3773,93.4121 42.3773,90.7454 44.5,88.5C 50.1278,87.5046 55.7945,87.1712 61.5,87.5C 62.4967,70.3414 62.83,53.008 62.5,35.5C 55.4065,35.1672 49.0731,35.5005 43.5,36.5C 46.5949,43.6967 49.4282,51.0301 52,58.5C 52.028,71.801 45.528,76.9676 32.5,74C 27.5497,71.3436 24.8831,67.177 24.5,61.5C 27.1457,52.7295 30.479,44.2295 34.5,36C 32.567,35.7489 30.7337,35.2489 29,34.5C 28.235,32.9343 28.4017,31.6009 29.5,30.5C 40.5,30.5 51.5,30.5 62.5,30.5C 62.5,28.8333 62.5,27.1667 62.5,25.5C 63.3143,23.7274 64.6476,23.2274 66.5,24C 67.4061,25.6995 67.7394,27.5328 67.5,29.5C 78.1719,29.3335 88.8385,29.5002 99.5,30C 102.493,33.8363 101.493,36.003 96.5,36.5C 98.4965,43.6546 100.996,50.6546 104,57.5C 105.601,68.2755 100.934,74.2755 90,75.5C 81.8824,74.3584 77.7157,69.6918 77.5,61.5C 79.5674,53.2979 82.234,45.2979 85.5,37.5 Z"/></g>
<g><path style="opacity:1" fill="#be2f38" d="M 62.5,25.5 C 62.5,27.1667 62.5,28.8333 62.5,30.5C 51.5,30.5 40.5,30.5 29.5,30.5C 39.9869,29.5056 50.6536,29.1722 61.5,29.5C 61.2322,27.901 61.5655,26.5676 62.5,25.5 Z"/></g>
<g><path style="opacity:1" fill="#7e7e7e" d="M 150.5,30.5 C 142.5,30.5 134.5,30.5 126.5,30.5C 126.5,46.1667 126.5,61.8333 126.5,77.5C 125.504,61.6754 125.17,45.6754 125.5,29.5C 134.017,29.1739 142.35,29.5073 150.5,30.5 Z"/></g>
<g><path style="opacity:1" fill="#f2f2f2" d="M 150.5,30.5 C 160.789,33.7314 164.955,40.7314 163,51.5C 160.737,58.0972 156.237,62.2639 149.5,64C 145.179,64.499 140.846,64.6657 136.5,64.5C 136.5,68.8333 136.5,73.1667 136.5,77.5C 133.167,77.5 129.833,77.5 126.5,77.5C 126.5,61.8333 126.5,46.1667 126.5,30.5C 134.5,30.5 142.5,30.5 150.5,30.5 Z"/></g>
<g><path style="opacity:1" fill="#f5f5f5" d="M 270.5,30.5 C 273.5,30.5 276.5,30.5 279.5,30.5C 279.5,45.8333 279.5,61.1667 279.5,76.5C 276.5,76.5 273.5,76.5 270.5,76.5C 270.5,61.1667 270.5,45.8333 270.5,30.5 Z"/></g>
<g><path style="opacity:1" fill="#f4f4f4" d="M 405.5,30.5 C 408.5,30.5 411.5,30.5 414.5,30.5C 414.5,45.8333 414.5,61.1667 414.5,76.5C 411.5,76.5 408.5,76.5 405.5,76.5C 405.5,61.1667 405.5,45.8333 405.5,30.5 Z"/></g>
<g><path style="opacity:1" fill="#b52d36" d="M 61.5,87.5 C 61.5,70.5 61.5,53.5 61.5,36.5C 55.5,36.5 49.5,36.5 43.5,36.5C 49.0731,35.5005 55.4065,35.1672 62.5,35.5C 62.83,53.008 62.4967,70.3414 61.5,87.5 Z"/></g>
<g><path style="opacity:1" fill="#85242b" d="M 67.5,36.5 C 73.6783,35.1826 80.0117,35.1826 86.5,36.5C 86.3764,37.1067 86.0431,37.44 85.5,37.5C 80.0247,36.5111 74.358,36.1778 68.5,36.5C 68.1667,36.5 67.8333,36.5 67.5,36.5 Z"/></g>
<g><path style="opacity:1" fill="#4b1a1d" d="M 67.5,36.5 C 67.8333,36.5 68.1667,36.5 68.5,36.5C 68.5,53.1667 68.5,69.8333 68.5,86.5C 73.6946,86.1795 78.6946,86.5128 83.5,87.5C 78.1667,87.5 72.8333,87.5 67.5,87.5C 67.5,70.5 67.5,53.5 67.5,36.5 Z"/></g>
<g><path style="opacity:1" fill="#4f4f4f" d="M 147.5,40.5 C 144.167,40.5 140.833,40.5 137.5,40.5C 137.5,44.8333 137.5,49.1667 137.5,53.5C 140.833,53.5 144.167,53.5 147.5,53.5C 144.038,54.4816 140.371,54.815 136.5,54.5C 136.5,49.5 136.5,44.5 136.5,39.5C 140.371,39.185 144.038,39.5184 147.5,40.5 Z"/></g>
<g><path style="opacity:1" fill="#131313" d="M 147.5,40.5 C 152.662,42.6973 153.829,46.364 151,51.5C 150.184,52.8228 149.017,53.4894 147.5,53.5C 144.167,53.5 140.833,53.5 137.5,53.5C 137.5,49.1667 137.5,44.8333 137.5,40.5C 140.833,40.5 144.167,40.5 147.5,40.5 Z"/></g>
<g><path style="opacity:1" fill="#efefef" d="M 179.5,41.5 C 182.518,41.3354 185.518,41.502 188.5,42C 190.676,42.1629 192.509,42.9963 194,44.5C 194.483,43.552 194.649,42.552 194.5,41.5C 197.833,41.5 201.167,41.5 204.5,41.5C 204.5,53.5 204.5,65.5 204.5,77.5C 200.566,77.9789 196.899,77.3122 193.5,75.5C 180.993,80.4929 172.16,76.8263 167,64.5C 165.433,53.6292 169.6,45.9626 179.5,41.5 Z"/></g>
<g><path style="opacity:1" fill="#a8a8a8" d="M 208.5,42.5 C 211.625,41.5206 214.958,41.1872 218.5,41.5C 218.5,42.8333 218.5,44.1667 218.5,45.5C 217.493,45.5476 217.16,44.5476 217.5,42.5C 214.5,42.5 211.5,42.5 208.5,42.5 Z"/></g>
<g><path style="opacity:1" fill="#ececec" d="M 208.5,42.5 C 211.5,42.5 214.5,42.5 217.5,42.5C 217.16,44.5476 217.493,45.5476 218.5,45.5C 221.135,42.5189 224.468,41.1856 228.5,41.5C 228.5,44.8333 228.5,48.1667 228.5,51.5C 224.406,50.7046 221.239,52.038 219,55.5C 218.5,62.8258 218.334,70.1591 218.5,77.5C 215.167,77.5 211.833,77.5 208.5,77.5C 208.5,65.8333 208.5,54.1667 208.5,42.5 Z"/></g>
<g><path style="opacity:1" fill="#eeeeee" d="M 241.5,41.5 C 246.313,41.2197 250.98,41.8863 255.5,43.5C 258.899,41.6878 262.566,41.0211 266.5,41.5C 266.5,53.5 266.5,65.5 266.5,77.5C 262.566,77.9789 258.899,77.3122 255.5,75.5C 243.03,80.5133 234.197,76.8466 229,64.5C 227.444,53.606 231.61,45.9393 241.5,41.5 Z"/></g>
<g><path style="opacity:1" fill="#eeeeee" d="M 296.5,41.5 C 312.039,40.0451 320.039,47.0451 320.5,62.5C 311.475,62.1685 302.475,62.5018 293.5,63.5C 296.033,69.2016 300.366,71.0349 306.5,69C 308.664,68.0857 310.664,66.919 312.5,65.5C 313.7,66.5312 315.034,67.3645 316.5,68C 318.007,68.8373 318.507,70.0039 318,71.5C 307.649,80.7626 297.316,80.7626 287,71.5C 280.084,58.0863 283.251,48.0863 296.5,41.5 Z"/></g>
<g><path style="opacity:1" fill="#efefef" d="M 335.5,41.5 C 340.337,41.1162 345.003,41.7829 349.5,43.5C 352.899,41.6878 356.566,41.0211 360.5,41.5C 360.944,54.9071 360.444,68.2404 359,81.5C 354.805,87.9309 348.805,90.9309 341,90.5C 333.868,90.685 328.368,87.8517 324.5,82C 328.132,77.2606 331.798,76.9273 335.5,81C 340.969,83.5049 345.803,82.6716 350,78.5C 351.221,74.1735 350.054,73.3401 346.5,76C 329.246,77.7435 321.746,69.9102 324,52.5C 326.412,47.2523 330.246,43.5857 335.5,41.5 Z"/></g>
<g><path style="opacity:1" fill="#efefef" d="M 376.5,41.5 C 381.313,41.2197 385.98,41.8863 390.5,43.5C 393.899,41.6878 397.566,41.0211 401.5,41.5C 401.5,53.5 401.5,65.5 401.5,77.5C 397.566,77.9789 393.899,77.3122 390.5,75.5C 378.03,80.5133 369.197,76.8466 364,64.5C 362.444,53.606 366.61,45.9393 376.5,41.5 Z"/></g>
<g><path style="opacity:1" fill="#1d1413" d="M 90.5,40.5 C 93.1414,46.7328 95.8081,53.0662 98.5,59.5C 93.5,60.8333 88.5,60.8333 83.5,59.5C 86.4341,53.362 88.7674,47.0287 90.5,40.5 Z"/></g>
<g><path style="opacity:1" fill="#1c1413" d="M 38.5,41.5 C 41.2618,47.534 43.9284,53.7006 46.5,60C 41.467,60.8289 36.467,60.6623 31.5,59.5C 33.8414,53.4713 36.1747,47.4713 38.5,41.5 Z"/></g>
<g><path style="opacity:1" fill="#bbbbbb" d="M 405.5,30.5 C 408.625,29.5206 411.958,29.1872 415.5,29.5C 415.5,45.5 415.5,61.5 415.5,77.5C 411.958,77.8128 408.625,77.4794 405.5,76.5C 408.5,76.5 411.5,76.5 414.5,76.5C 414.5,61.1667 414.5,45.8333 414.5,30.5C 411.5,30.5 408.5,30.5 405.5,30.5 Z"/></g>
<g><path style="opacity:1" fill="#141414" d="M 297.5,49.5 C 303.006,48.3777 307.34,50.0444 310.5,54.5C 304.833,55.8333 299.167,55.8333 293.5,54.5C 294.857,52.8144 296.19,51.1477 297.5,49.5 Z"/></g>
<g><path style="opacity:1" fill="#171717" d="M 181.5,50.5 C 191.039,49.8694 195.206,54.2028 194,63.5C 187.583,71.7543 181.583,71.421 176,62.5C 175.413,57.3435 177.246,53.3435 181.5,50.5 Z"/></g>
<g><path style="opacity:1" fill="#161616" d="M 243.5,50.5 C 254.216,49.3807 258.383,54.0474 256,64.5C 250.925,70.5237 245.592,70.857 240,65.5C 237.204,59.4516 238.371,54.4516 243.5,50.5 Z"/></g>
<g><path style="opacity:1" fill="#151515" d="M 337.5,50.5 C 349.416,49.8352 353.083,55.0019 348.5,66C 337.706,70.8777 332.54,67.3777 333,55.5C 334.059,53.3408 335.559,51.6741 337.5,50.5 Z"/></g>
<g><path style="opacity:1" fill="#171717" d="M 378.5,50.5 C 389.383,49.5373 393.55,54.2039 391,64.5C 385.925,70.5237 380.592,70.857 375,65.5C 372.204,59.4516 373.371,54.4516 378.5,50.5 Z"/></g>
<g><path style="opacity:1" fill="#b6b6b6" d="M 270.5,30.5 C 273.625,29.5206 276.958,29.1872 280.5,29.5C 280.5,45.5 280.5,61.5 280.5,77.5C 276.958,77.8128 273.625,77.4794 270.5,76.5C 273.5,76.5 276.5,76.5 279.5,76.5C 279.5,61.1667 279.5,45.8333 279.5,30.5C 276.5,30.5 273.5,30.5 270.5,30.5 Z"/></g>
</svg>
