<?xml version="1.0" encoding="UTF-8"?>
<!DOCTYPE svg PUBLIC "-//W3C//DTD SVG 1.1//EN" "http://www.w3.org/Graphics/SVG/1.1/DTD/svg11.dtd">
<svg xmlns="http://www.w3.org/2000/svg" version="1.1" width="368px" height="108px" style="shape-rendering:geometricPrecision; text-rendering:geometricPrecision; image-rendering:optimizeQuality; fill-rule:evenodd; clip-rule:evenodd" xmlns:xlink="http://www.w3.org/1999/xlink">
<g><path style="opacity:1" fill="#fefefe" d="M -0.5,-0.5 C 122.167,-0.5 244.833,-0.5 367.5,-0.5C 367.5,35.5 367.5,71.5 367.5,107.5C 244.833,107.5 122.167,107.5 -0.5,107.5C -0.5,71.5 -0.5,35.5 -0.5,-0.5 Z"/></g>
<g><path style="opacity:1" fill="#121212" d="M 12.5,6.5 C 126.167,6.33333 239.834,6.5 353.5,7C 355,8.5 356.5,10 358,11.5C 358.667,38.5 358.667,65.5 358,92.5C 357.261,95.5735 355.428,97.7402 352.5,99C 239.167,99.6667 125.833,99.6667 12.5,99C 10.1898,97.3626 8.68979,95.196 8,92.5C 7.33333,65.5 7.33333,38.5 8,11.5C 9.70733,9.96252 11.2073,8.29585 12.5,6.5 Z"/></g>
<g><path style="opacity:1" fill="#f6f6f6" d="M 60.5,33.5 C 59.5042,47.3234 59.1709,61.3234 59.5,75.5C 63.8333,75.5 68.1667,75.5 72.5,75.5C 73.7794,77.1233 75.1128,78.79 76.5,80.5C 76.2907,81.086 75.9574,81.586 75.5,82C 63.1712,82.4999 50.8378,82.6665 38.5,82.5C 38.1824,79.5185 39.1824,77.1852 41.5,75.5C 46.1667,75.5 50.8333,75.5 55.5,75.5C 55.8291,61.3234 55.4958,47.3234 54.5,33.5C 49.8333,33.5 45.1667,33.5 40.5,33.5C 42.8157,40.1401 45.149,46.8068 47.5,53.5C 46.7645,61.0688 42.5978,65.0688 35,65.5C 28.4879,64.146 24.9879,60.146 24.5,53.5C 27.2372,46.9542 29.5705,40.2876 31.5,33.5C 27.8388,33.6499 26.8388,32.1499 28.5,29C 37.1603,28.5002 45.8269,28.3336 54.5,28.5C 54.1908,24.6572 55.6908,23.3239 59,24.5C 59.49,25.7932 59.6567,27.1266 59.5,28.5C 67.84,28.3336 76.1733,28.5003 84.5,29C 85.428,29.3879 86.0946,30.0546 86.5,31C 85.3867,32.3943 84.0534,33.561 82.5,34.5C 84.7648,40.1276 86.9315,45.7943 89,51.5C 90.1324,60.2038 86.2991,64.8704 77.5,65.5C 71.3257,64.3292 67.9924,60.6625 67.5,54.5C 69.1338,47.4319 71.4672,40.5986 74.5,34C 69.8452,33.5008 65.1785,33.3342 60.5,33.5 Z"/></g>
<g><path style="opacity:1" fill="#fbfbfb" d="M 127.5,29.5 C 131.362,30.5237 134.195,32.8571 136,36.5C 138.041,51.9574 131.208,58.6241 115.5,56.5C 115.5,59.8333 115.5,63.1667 115.5,66.5C 112.833,66.5 110.167,66.5 107.5,66.5C 107.5,54.1667 107.5,41.8333 107.5,29.5C 114.167,29.5 120.833,29.5 127.5,29.5 Z"/></g>
<g><path style="opacity:1" fill="#838383" d="M 223.5,28.5 C 226.5,28.5 229.5,28.5 232.5,28.5C 232.5,41.5 232.5,54.5 232.5,67.5C 229.5,67.5 226.5,67.5 223.5,67.5C 223.5,54.5 223.5,41.5 223.5,28.5 Z"/></g>
<g><path style="opacity:1" fill="#fefffe" d="M 224.5,29.5 C 226.833,29.5 229.167,29.5 231.5,29.5C 231.5,41.8333 231.5,54.1667 231.5,66.5C 229.167,66.5 226.833,66.5 224.5,66.5C 224.5,54.1667 224.5,41.8333 224.5,29.5 Z"/></g>
<g><path style="opacity:1" fill="#fefffe" d="M 333.5,29.5 C 335.833,29.5 338.167,29.5 340.5,29.5C 340.5,41.8333 340.5,54.1667 340.5,66.5C 338.167,66.5 335.833,66.5 333.5,66.5C 333.5,54.1667 333.5,41.8333 333.5,29.5 Z"/></g>
<g><path style="opacity:1" fill="#c3c3c3" d="M 333.5,29.5 C 335.948,28.5269 338.615,28.1936 341.5,28.5C 341.5,41.5 341.5,54.5 341.5,67.5C 338.615,67.8064 335.948,67.4731 333.5,66.5C 335.833,66.5 338.167,66.5 340.5,66.5C 340.5,54.1667 340.5,41.8333 340.5,29.5C 338.167,29.5 335.833,29.5 333.5,29.5 Z"/></g>
<g><path style="opacity:1" fill="#b6b6b6" d="M 54.5,33.5 C 55.4958,47.3234 55.8291,61.3234 55.5,75.5C 50.8333,75.5 46.1667,75.5 41.5,75.5C 45.6344,74.5151 49.9677,74.1818 54.5,74.5C 54.5,60.8333 54.5,47.1667 54.5,33.5 Z"/></g>
<g><path style="opacity:1" fill="#565656" d="M 60.5,33.5 C 60.5,47.1667 60.5,60.8333 60.5,74.5C 64.7016,74.1832 68.7016,74.5166 72.5,75.5C 68.1667,75.5 63.8333,75.5 59.5,75.5C 59.1709,61.3234 59.5042,47.3234 60.5,33.5 Z"/></g>
<g><path style="opacity:1" fill="#181818" d="M 115.5,36.5 C 119.584,36.0431 123.417,36.7098 127,38.5C 129.052,41.4602 128.886,44.2935 126.5,47C 122.94,48.2367 119.273,48.7367 115.5,48.5C 115.5,44.5 115.5,40.5 115.5,36.5 Z"/></g>
<g><path style="opacity:1" fill="#f5f5f5" d="M 148.5,38.5 C 152.182,38.3347 155.848,38.5014 159.5,39C 160.416,39.3742 161.25,39.8742 162,40.5C 164.456,38.6787 167.289,38.012 170.5,38.5C 170.5,48.1667 170.5,57.8333 170.5,67.5C 167.212,67.927 164.212,67.2603 161.5,65.5C 146.563,69.7334 139.396,64.0668 140,48.5C 141.978,44.3619 144.811,41.0286 148.5,38.5 Z"/></g>
<g><path style="opacity:1" fill="#f7f7f7" d="M 173.5,38.5 C 176.167,38.5 178.833,38.5 181.5,38.5C 181.351,39.552 181.517,40.552 182,41.5C 183.995,39.253 186.495,38.253 189.5,38.5C 189.5,41.1667 189.5,43.8333 189.5,46.5C 186.348,45.9586 183.848,46.9586 182,49.5C 181.501,55.4908 181.334,61.4908 181.5,67.5C 178.833,67.5 176.167,67.5 173.5,67.5C 173.5,57.8333 173.5,48.1667 173.5,38.5 Z"/></g>
<g><path style="opacity:1" fill="#f9f9f9" d="M 220.5,38.5 C 220.5,47.8333 220.5,57.1667 220.5,66.5C 217.721,66.7214 215.054,66.388 212.5,65.5C 202.738,69.6995 195.572,67.0328 191,57.5C 189.705,41.3027 196.872,35.636 212.5,40.5C 214.868,38.777 217.534,38.1103 220.5,38.5 Z"/></g>
<g><path style="opacity:1" fill="#f7f7f7" d="M 263.5,48.5 C 263.5,50.5 263.5,52.5 263.5,54.5C 256.313,54.1755 249.313,54.5088 242.5,55.5C 242.859,57.371 243.859,58.871 245.5,60C 250.03,61.2274 254.03,60.3941 257.5,57.5C 264.079,60.21 264.079,63.0433 257.5,66C 241.543,70.0395 234.043,63.8728 235,47.5C 239.773,38.6989 246.94,35.8656 256.5,39C 260.597,40.9218 262.93,44.0885 263.5,48.5 Z"/></g>
<g><path style="opacity:1" fill="#f4f4f4" d="M 277.5,37.5 C 281.179,37.3626 284.679,38.0293 288,39.5C 290.719,38.5562 293.552,38.2229 296.5,38.5C 296.666,48.8387 296.5,59.172 296,69.5C 292.609,75.4465 287.442,78.1131 280.5,77.5C 275.112,77.4728 270.779,75.3061 267.5,71C 270.304,67.1495 273.304,66.8162 276.5,70C 279.833,70.6667 283.167,70.6667 286.5,70C 288.421,68.7592 288.754,67.2592 287.5,65.5C 273.009,68.1739 266.176,62.1739 267,47.5C 269.106,42.5573 272.606,39.224 277.5,37.5 Z"/></g>
<g><path style="opacity:1" fill="#f8f8f8" d="M 329.5,38.5 C 329.5,47.8333 329.5,57.1667 329.5,66.5C 327.167,66.5 324.833,66.5 322.5,66.5C 322.44,65.9569 322.107,65.6236 321.5,65.5C 306.563,69.7334 299.396,64.0668 300,48.5C 304.622,38.4398 311.955,35.7731 322,40.5C 324.106,38.709 326.606,38.0423 329.5,38.5 Z"/></g>
<g><path style="opacity:1" fill="#bebebe" d="M 329.5,38.5 C 330.494,47.9856 330.827,57.6522 330.5,67.5C 327.615,67.8064 324.948,67.4731 322.5,66.5C 324.833,66.5 327.167,66.5 329.5,66.5C 329.5,57.1667 329.5,47.8333 329.5,38.5 Z"/></g>
<g><path style="opacity:1" fill="#1c1c1c" d="M 35.5,37.5 C 38.071,42.5372 40.071,47.8706 41.5,53.5C 37.8333,53.5 34.1667,53.5 30.5,53.5C 32.1667,48.1667 33.8333,42.8333 35.5,37.5 Z"/></g>
<g><path style="opacity:1" fill="#1b1b1b" d="M 77.5,39.5 C 78.3764,39.3691 79.0431,39.7025 79.5,40.5C 81.1667,44.5 82.8333,48.5 84.5,52.5C 80.5,53.8333 76.5,53.8333 72.5,52.5C 74.4574,48.2563 76.1241,43.923 77.5,39.5 Z"/></g>
<g><path style="opacity:1" fill="#b0b0b0" d="M 127.5,29.5 C 120.833,29.5 114.167,29.5 107.5,29.5C 107.5,41.8333 107.5,54.1667 107.5,66.5C 110.167,66.5 112.833,66.5 115.5,66.5C 112.713,67.4767 109.713,67.81 106.5,67.5C 106.5,54.5 106.5,41.5 106.5,28.5C 113.687,28.1755 120.687,28.5088 127.5,29.5 Z"/></g>
<g><path style="opacity:1" fill="#626262" d="M 220.5,38.5 C 221.494,47.9856 221.827,57.6522 221.5,67.5C 217.988,68.0545 214.988,67.3878 212.5,65.5C 215.054,66.388 217.721,66.7214 220.5,66.5C 220.5,57.1667 220.5,47.8333 220.5,38.5 Z"/></g>
<g><path style="opacity:1" fill="#181818" d="M 255.5,47.5 C 251.5,48.8333 247.5,48.8333 243.5,47.5C 244.898,45.4672 246.898,44.4672 249.5,44.5C 252.102,44.4672 254.102,45.4672 255.5,47.5 Z"/></g>
<g><path style="opacity:1" fill="#161616" d="M 150.5,45.5 C 158.661,44.1715 162.495,47.5048 162,55.5C 157.833,61.759 153.167,62.0923 148,56.5C 146.946,52.3445 147.78,48.6779 150.5,45.5 Z"/></g>
<g><path style="opacity:1" fill="#181818" d="M 201.5,45.5 C 210.328,44.1607 213.828,47.8274 212,56.5C 206.833,62.0923 202.167,61.759 198,55.5C 197.333,53.5 197.333,51.5 198,49.5C 199.376,48.2949 200.542,46.9616 201.5,45.5 Z"/></g>
<g><path style="opacity:1" fill="#161616" d="M 277.5,45.5 C 285.167,44.024 289,47.024 289,54.5C 286.565,59.2238 282.731,60.7238 277.5,59C 273.541,54.5015 273.541,50.0015 277.5,45.5 Z"/></g>
<g><path style="opacity:1" fill="#161616" d="M 310.5,45.5 C 318.661,44.1715 322.495,47.5048 322,55.5C 317.833,61.759 313.167,62.0923 308,56.5C 306.946,52.3445 307.78,48.6779 310.5,45.5 Z"/></g>
<g><path style="opacity:1" fill="#575757" d="M 243.5,47.5 C 247.5,48.8333 251.5,48.8333 255.5,47.5C 256.043,47.56 256.376,47.8933 256.5,48.5C 251.833,49.8333 247.167,49.8333 242.5,48.5C 242.624,47.8933 242.957,47.56 243.5,47.5 Z"/></g>
<g><path style="opacity:1" fill="#8e8e8e" d="M 263.5,48.5 C 264.468,50.6074 264.802,52.9407 264.5,55.5C 257.167,55.5 249.833,55.5 242.5,55.5C 249.313,54.5088 256.313,54.1755 263.5,54.5C 263.5,52.5 263.5,50.5 263.5,48.5 Z"/></g>
</svg>
