<?xml version="1.0" encoding="UTF-8"?>
<!DOCTYPE svg PUBLIC "-//W3C//DTD SVG 1.1//EN" "http://www.w3.org/Graphics/SVG/1.1/DTD/svg11.dtd">
<svg xmlns="http://www.w3.org/2000/svg" version="1.1" width="351px" height="89px" style="shape-rendering:geometricPrecision; text-rendering:geometricPrecision; image-rendering:optimizeQuality; fill-rule:evenodd; clip-rule:evenodd" xmlns:xlink="http://www.w3.org/1999/xlink">
<g><path style="opacity:1" fill="#121212" d="M -0.5,-0.5 C 116.5,-0.5 233.5,-0.5 350.5,-0.5C 350.5,29.1667 350.5,58.8333 350.5,88.5C 233.5,88.5 116.5,88.5 -0.5,88.5C -0.5,58.8333 -0.5,29.1667 -0.5,-0.5 Z"/></g>
<g><path style="opacity:1" fill="#efefef" d="M 9.5,8.5 C 18.5062,8.33356 27.5062,8.50023 36.5,9C 49.8074,13.1103 54.6407,21.9436 51,35.5C 48.7366,42.0972 44.2366,46.2639 37.5,48C 32.1771,48.4994 26.8437,48.666 21.5,48.5C 21.5,53.5 21.5,58.5 21.5,63.5C 17.5,63.5 13.5,63.5 9.5,63.5C 9.5,45.1667 9.5,26.8333 9.5,8.5 Z"/></g>
<g><path style="opacity:1" fill="#f0f0f0" d="M 174.5,9.5 C 178.167,9.5 181.833,9.5 185.5,9.5C 185.5,27.5 185.5,45.5 185.5,63.5C 181.833,63.5 178.167,63.5 174.5,63.5C 174.5,45.5 174.5,27.5 174.5,9.5 Z"/></g>
<g><path style="opacity:1" fill="#686868" d="M 174.5,9.5 C 178.298,8.51658 182.298,8.18325 186.5,8.5C 186.83,27.0076 186.497,45.3409 185.5,63.5C 185.5,45.5 185.5,27.5 185.5,9.5C 181.833,9.5 178.167,9.5 174.5,9.5 Z"/></g>
<g><path style="opacity:1" fill="#646464" d="M 340.5,9.5 C 336.833,9.5 333.167,9.5 329.5,9.5C 329.5,27.5 329.5,45.5 329.5,63.5C 328.503,45.3409 328.17,27.0076 328.5,8.5C 332.702,8.18325 336.702,8.51658 340.5,9.5 Z"/></g>
<g><path style="opacity:1" fill="#f0f0f0" d="M 340.5,9.5 C 340.5,27.5 340.5,45.5 340.5,63.5C 336.833,63.5 333.167,63.5 329.5,63.5C 329.5,45.5 329.5,27.5 329.5,9.5C 333.167,9.5 336.833,9.5 340.5,9.5 Z"/></g>
<g><path style="opacity:1" fill="#696969" d="M 22.5,20.5 C 22.5,25.8333 22.5,31.1667 22.5,36.5C 26.1667,36.5 29.8333,36.5 33.5,36.5C 29.7016,37.4834 25.7016,37.8168 21.5,37.5C 21.1778,31.642 21.5111,25.9753 22.5,20.5 Z"/></g>
<g><path style="opacity:1" fill="#121212" d="M 22.5,20.5 C 26.8461,20.3343 31.1794,20.501 35.5,21C 39.2765,23.9547 40.4432,27.788 39,32.5C 37.549,34.4641 35.7157,35.7974 33.5,36.5C 29.8333,36.5 26.1667,36.5 22.5,36.5C 22.5,31.1667 22.5,25.8333 22.5,20.5 Z"/></g>
<g><path style="opacity:1" fill="#f2f2f2" d="M 88.5,23.5 C 91.8333,23.5 95.1667,23.5 98.5,23.5C 98.5,36.8333 98.5,50.1667 98.5,63.5C 95.1667,63.5 91.8333,63.5 88.5,63.5C 88.719,62.325 88.3857,61.325 87.5,60.5C 80.2824,64.2715 72.9491,64.4382 65.5,61C 55.3679,52.9678 53.2012,43.1344 59,31.5C 66.8814,21.9924 76.3814,19.9924 87.5,25.5C 88.2975,25.0431 88.6309,24.3764 88.5,23.5 Z"/></g>
<g><path style="opacity:1" fill="#f1f1f1" d="M 123.5,21.5 C 124.5,21.5 125.5,21.5 126.5,21.5C 126.5,25.5 126.5,29.5 126.5,33.5C 121.075,33.0711 117.242,35.4045 115,40.5C 114.5,48.1594 114.334,55.8261 114.5,63.5C 110.833,63.5 107.167,63.5 103.5,63.5C 103.5,49.8333 103.5,36.1667 103.5,22.5C 107.167,22.5 110.833,22.5 114.5,22.5C 114.34,24.1992 114.506,25.8659 115,27.5C 117.671,25.0976 120.505,23.0976 123.5,21.5 Z"/></g>
<g><path style="opacity:1" fill="#f0f0f0" d="M 141.5,22.5 C 147.515,21.8026 153.182,22.8026 158.5,25.5C 159.386,24.675 159.719,23.675 159.5,22.5C 163.167,22.5 166.833,22.5 170.5,22.5C 170.5,36.1667 170.5,49.8333 170.5,63.5C 166.833,63.5 163.167,63.5 159.5,63.5C 159.649,62.448 159.483,61.448 159,60.5C 140.86,67.6802 130.027,61.6802 126.5,42.5C 127.746,32.9324 132.746,26.2657 141.5,22.5 Z"/></g>
<g><path style="opacity:1" fill="#f0f0f0" d="M 206.5,21.5 C 223.85,20.8498 232.183,29.1832 231.5,46.5C 221.161,46.3335 210.828,46.5002 200.5,47C 203.236,53.8658 208.236,56.1991 215.5,54C 218.196,53.3102 220.363,51.8102 222,49.5C 225.089,50.9596 227.922,52.793 230.5,55C 219.905,65.8926 208.238,67.2259 195.5,59C 184.766,42.0497 188.432,29.5497 206.5,21.5 Z"/></g>
<g><path style="opacity:1" fill="#efefef" d="M 248.5,22.5 C 252.846,22.3343 257.179,22.501 261.5,23C 263.329,23.2735 264.829,24.1068 266,25.5C 266.483,24.552 266.649,23.552 266.5,22.5C 270.167,22.5 273.833,22.5 277.5,22.5C 277.934,37.5583 277.434,52.5583 276,67.5C 271.398,75.209 264.565,78.8756 255.5,78.5C 247.503,78.5014 241.169,75.3347 236.5,69C 238.911,67.0445 241.411,65.2112 244,63.5C 248.842,68.2989 254.675,69.7989 261.5,68C 265.253,66.3262 266.753,63.4928 266,59.5C 254.307,65.3251 244.64,62.9917 237,52.5C 231.694,38.9107 235.527,28.9107 248.5,22.5 Z"/></g>
<g><path style="opacity:1" fill="#f1f1f1" d="M 295.5,22.5 C 301.657,21.9194 307.49,22.9194 313,25.5C 313.483,24.552 313.649,23.552 313.5,22.5C 317.167,22.5 320.833,22.5 324.5,22.5C 324.5,36.1667 324.5,49.8333 324.5,63.5C 320.241,63.9975 316.241,63.3308 312.5,61.5C 298.338,67.3276 288.171,63.3276 282,49.5C 279.619,36.9288 284.119,27.9288 295.5,22.5 Z"/></g>
<g><path style="opacity:1" fill="#adadad" d="M 88.5,23.5 C 91.9619,22.5184 95.6286,22.185 99.5,22.5C 99.829,36.3435 99.4957,50.0102 98.5,63.5C 98.5,50.1667 98.5,36.8333 98.5,23.5C 95.1667,23.5 91.8333,23.5 88.5,23.5 Z"/></g>
<g><path style="opacity:1" fill="#161616" d="M 219.5,36.5 C 213.69,37.4896 207.69,37.8229 201.5,37.5C 202.885,33.1198 205.885,31.1198 210.5,31.5C 214.905,30.8646 217.905,32.5313 219.5,36.5 Z"/></g>
<g><path style="opacity:1" fill="#161616" d="M 72.5,32.5 C 84.6494,31.4747 89.4828,36.808 87,48.5C 82.5108,54.6641 77.0108,55.8308 70.5,52C 64.6716,44.8099 65.3382,38.3099 72.5,32.5 Z"/></g>
<g><path style="opacity:1" fill="#171717" d="M 144.5,32.5 C 157.599,32.42 161.766,38.42 157,50.5C 148.48,56.9164 142.147,55.2497 138,45.5C 136.973,39.554 139.14,35.2207 144.5,32.5 Z"/></g>
<g><path style="opacity:1" fill="#151515" d="M 251.5,32.5 C 265.699,32.0665 269.699,38.2332 263.5,51C 251.298,55.801 245.464,51.6343 246,38.5C 247.36,35.9774 249.193,33.9774 251.5,32.5 Z"/></g>
<g><path style="opacity:1" fill="#151515" d="M 298.5,32.5 C 309.37,31.8672 314.203,36.8672 313,47.5C 306.25,56.7434 299.583,56.7434 293,47.5C 291.087,40.9698 292.92,35.9698 298.5,32.5 Z"/></g>
<g><path style="opacity:1" fill="#4c4c4c" d="M 219.5,36.5 C 220.043,36.56 220.376,36.8933 220.5,37.5C 214.012,38.8174 207.678,38.8174 201.5,37.5C 207.69,37.8229 213.69,37.4896 219.5,36.5 Z"/></g>
</svg>
